<mxfile host="app.diagrams.net" modified="2021-07-22T06:03:42.847Z" agent="5.0 (Macintosh; Intel Mac OS X 10_15_7) AppleWebKit/537.36 (KHTML, like Gecko) Chrome/91.0.4472.164 Safari/537.36" etag="Tq6ajtYpbDR8YgttxtZg" version="14.8.4" type="github" pages="2">
  <diagram name="Page-1" id="12e1b939-464a-85fe-373e-61e167be1490">
    <mxGraphModel dx="1927" dy="933" grid="1" gridSize="10" guides="1" tooltips="1" connect="1" arrows="1" fold="1" page="1" pageScale="1.5" pageWidth="1169" pageHeight="826" background="#ffffff" math="0" shadow="0">
      <root>
        <mxCell id="0" />
        <mxCell id="1" parent="0" />
        <mxCell id="yoitGKq9dfMv8cy0CzuJ-1" value="" style="group" vertex="1" connectable="0" parent="1">
          <mxGeometry x="480" y="405" width="970" height="335" as="geometry" />
        </mxCell>
        <mxCell id="60da8b9f42644d3a-2" value="" style="whiteSpace=wrap;html=1;rounded=1;shadow=0;strokeWidth=8;fontSize=20;align=center;strokeColor=#b85450;rotation=-180;fillColor=#f8cecc;" parent="yoitGKq9dfMv8cy0CzuJ-1" vertex="1">
          <mxGeometry x="2.4183384339905157e-14" width="238.24561403508764" height="334.99999999999994" as="geometry" />
        </mxCell>
        <mxCell id="60da8b9f42644d3a-3" value="&lt;font style=&quot;font-size: 24px&quot;&gt;交易与风险管理&lt;/font&gt;" style="text;html=1;strokeColor=none;fillColor=none;align=center;verticalAlign=middle;whiteSpace=wrap;rounded=0;shadow=0;fontSize=17;fontStyle=1" parent="yoitGKq9dfMv8cy0CzuJ-1" vertex="1">
          <mxGeometry x="2.4183384339905157e-14" y="15.58139534883721" width="238.24561403508764" height="46.74418604651162" as="geometry" />
        </mxCell>
        <mxCell id="60da8b9f42644d3a-4" value="&lt;font style=&quot;font-size: 18px&quot;&gt;强大的交易与定价工具集&lt;/font&gt;" style="text;html=1;strokeColor=none;fillColor=none;align=center;verticalAlign=middle;whiteSpace=wrap;rounded=0;shadow=0;fontSize=12;" parent="yoitGKq9dfMv8cy0CzuJ-1" vertex="1">
          <mxGeometry x="2.4183384339905157e-14" y="284.360465116279" width="238.24561403508764" height="35.058139534883715" as="geometry" />
        </mxCell>
        <mxCell id="60da8b9f42644d3a-6" value="" style="line;strokeWidth=2;html=1;rounded=0;shadow=0;fontSize=27;align=center;fillColor=none;strokeColor=#FFFFFF;" parent="yoitGKq9dfMv8cy0CzuJ-1" vertex="1">
          <mxGeometry x="17.017543859649145" y="62.32558139534884" width="204.21052631578945" height="7.790697674418605" as="geometry" />
        </mxCell>
        <mxCell id="60da8b9f42644d3a-7" value="" style="line;strokeWidth=2;html=1;rounded=0;shadow=0;fontSize=27;align=center;fillColor=none;strokeColor=#FFFFFF;" parent="yoitGKq9dfMv8cy0CzuJ-1" vertex="1">
          <mxGeometry x="17.017543859649145" y="268.7790697674418" width="204.21052631578945" height="7.790697674418605" as="geometry" />
        </mxCell>
        <mxCell id="60da8b9f42644d3a-24" value="" style="whiteSpace=wrap;html=1;rounded=1;shadow=0;strokeWidth=8;fontSize=20;align=center;strokeColor=#b85450;fillColor=#f8cecc;" parent="yoitGKq9dfMv8cy0CzuJ-1" vertex="1">
          <mxGeometry x="363.3245614035087" width="238.24561403508764" height="334.99999999999994" as="geometry" />
        </mxCell>
        <mxCell id="60da8b9f42644d3a-25" value="&lt;font style=&quot;font-size: 24px&quot;&gt;开发与持续集成平台&lt;/font&gt;" style="text;html=1;strokeColor=none;fillColor=none;align=center;verticalAlign=middle;whiteSpace=wrap;rounded=0;shadow=0;fontSize=17;fontStyle=1" parent="yoitGKq9dfMv8cy0CzuJ-1" vertex="1">
          <mxGeometry x="363.3245614035087" y="15.58139534883721" width="238.24561403508764" height="46.74418604651162" as="geometry" />
        </mxCell>
        <mxCell id="60da8b9f42644d3a-27" value="" style="line;strokeWidth=2;html=1;rounded=0;shadow=0;fontSize=27;align=center;fillColor=none;strokeColor=#FFFFFF;" parent="yoitGKq9dfMv8cy0CzuJ-1" vertex="1">
          <mxGeometry x="380.3421052631578" y="62.32558139534884" width="204.21052631578945" height="7.790697674418605" as="geometry" />
        </mxCell>
        <mxCell id="60da8b9f42644d3a-28" value="" style="line;strokeWidth=2;html=1;rounded=0;shadow=0;fontSize=27;align=center;fillColor=none;strokeColor=#FFFFFF;" parent="yoitGKq9dfMv8cy0CzuJ-1" vertex="1">
          <mxGeometry x="380.3421052631578" y="268.7790697674418" width="204.21052631578945" height="7.790697674418605" as="geometry" />
        </mxCell>
        <mxCell id="60da8b9f42644d3a-31" value="" style="whiteSpace=wrap;html=1;rounded=1;shadow=0;strokeWidth=8;fontSize=20;align=center;strokeColor=#b85450;fillColor=#f8cecc;" parent="yoitGKq9dfMv8cy0CzuJ-1" vertex="1">
          <mxGeometry x="731.7543859649122" width="238.24561403508764" height="334.99999999999994" as="geometry" />
        </mxCell>
        <mxCell id="60da8b9f42644d3a-32" value="&lt;font style=&quot;font-size: 24px&quot;&gt;计算资源与基础设施&lt;/font&gt;" style="text;html=1;strokeColor=none;fillColor=none;align=center;verticalAlign=middle;whiteSpace=wrap;rounded=0;shadow=0;fontSize=17;fontStyle=1" parent="yoitGKq9dfMv8cy0CzuJ-1" vertex="1">
          <mxGeometry x="731.7543859649122" y="15.58139534883721" width="238.24561403508764" height="46.74418604651162" as="geometry" />
        </mxCell>
        <mxCell id="60da8b9f42644d3a-34" value="" style="line;strokeWidth=2;html=1;rounded=0;shadow=0;fontSize=27;align=center;fillColor=none;strokeColor=#FFFFFF;" parent="yoitGKq9dfMv8cy0CzuJ-1" vertex="1">
          <mxGeometry x="748.7719298245615" y="62.32558139534884" width="204.21052631578945" height="7.790697674418605" as="geometry" />
        </mxCell>
        <mxCell id="60da8b9f42644d3a-35" value="" style="line;strokeWidth=2;html=1;rounded=0;shadow=0;fontSize=27;align=center;fillColor=none;strokeColor=#FFFFFF;" parent="yoitGKq9dfMv8cy0CzuJ-1" vertex="1">
          <mxGeometry x="748.7719298245615" y="268.7790697674418" width="204.21052631578945" height="7.790697674418605" as="geometry" />
        </mxCell>
        <mxCell id="fxWyjonsnhkvdFd7wCCT-1" value="" style="html=1;shadow=0;dashed=0;align=center;verticalAlign=middle;shape=mxgraph.arrows2.stylisedArrow;dy=0.6;dx=40;notch=15;feather=0.4;rounded=0;strokeWidth=1;fontSize=27;strokeColor=#b85450;fillColor=#f8cecc;" parent="yoitGKq9dfMv8cy0CzuJ-1" vertex="1">
          <mxGeometry x="255.26315789473682" y="159.7093023255814" width="85.08771929824562" height="46.74418604651162" as="geometry" />
        </mxCell>
        <mxCell id="fxWyjonsnhkvdFd7wCCT-2" value="" style="html=1;shadow=0;dashed=0;align=center;verticalAlign=middle;shape=mxgraph.arrows2.stylisedArrow;dy=0.6;dx=40;notch=15;feather=0.4;rounded=0;strokeWidth=1;fontSize=27;strokeColor=#b85450;fillColor=#f8cecc;" parent="yoitGKq9dfMv8cy0CzuJ-1" vertex="1">
          <mxGeometry x="621.140350877193" y="159.7093023255814" width="85.08771929824562" height="46.74418604651162" as="geometry" />
        </mxCell>
        <mxCell id="fxWyjonsnhkvdFd7wCCT-4" value="&lt;font style=&quot;font-size: 18px&quot;&gt;创新&amp;nbsp; +&amp;nbsp; 协作&lt;/font&gt;" style="text;html=1;strokeColor=none;fillColor=none;align=center;verticalAlign=middle;whiteSpace=wrap;rounded=0;shadow=0;fontSize=12;" parent="yoitGKq9dfMv8cy0CzuJ-1" vertex="1">
          <mxGeometry x="363.3245614035087" y="284.360465116279" width="238.24561403508764" height="35.058139534883715" as="geometry" />
        </mxCell>
        <mxCell id="fxWyjonsnhkvdFd7wCCT-5" value="&lt;font style=&quot;font-size: 18px&quot;&gt;可靠、高效、低成本&lt;/font&gt;" style="text;html=1;strokeColor=none;fillColor=none;align=center;verticalAlign=middle;whiteSpace=wrap;rounded=0;shadow=0;fontSize=12;" parent="yoitGKq9dfMv8cy0CzuJ-1" vertex="1">
          <mxGeometry x="731.7543859649122" y="284.360465116279" width="238.24561403508764" height="35.058139534883715" as="geometry" />
        </mxCell>
        <mxCell id="fxWyjonsnhkvdFd7wCCT-6" value="" style="shape=image;html=1;verticalAlign=top;verticalLabelPosition=bottom;labelBackgroundColor=#ffffff;imageAspect=0;aspect=fixed;image=https://cdn1.iconfinder.com/data/icons/essentials-pack/96/code_coding_html_css_programming-128.png;fillColor=none;fontSize=48;fontColor=#000000;" parent="yoitGKq9dfMv8cy0CzuJ-1" vertex="1">
          <mxGeometry x="399.91228070175424" y="97.38372093023254" width="27.870312068489362" height="27.870312068489362" as="geometry" />
        </mxCell>
        <mxCell id="fxWyjonsnhkvdFd7wCCT-7" value="&lt;span style=&quot;font-size: 18px&quot;&gt;构建与测试&lt;/span&gt;" style="text;html=1;strokeColor=none;fillColor=none;align=center;verticalAlign=middle;whiteSpace=wrap;rounded=0;shadow=0;fontSize=12;" parent="yoitGKq9dfMv8cy0CzuJ-1" vertex="1">
          <mxGeometry x="442.45614035087715" y="91.93023255813952" width="127.63157894736841" height="35.058139534883715" as="geometry" />
        </mxCell>
        <mxCell id="fxWyjonsnhkvdFd7wCCT-8" value="" style="shape=image;html=1;verticalAlign=top;verticalLabelPosition=bottom;labelBackgroundColor=#ffffff;imageAspect=0;aspect=fixed;image=https://cdn1.iconfinder.com/data/icons/logos-and-brands-3/512/97_Docker_logo_logos-128.png;fillColor=none;fontSize=48;fontColor=#000000;" parent="yoitGKq9dfMv8cy0CzuJ-1" vertex="1">
          <mxGeometry x="395.65789473684214" y="151.91860465116278" width="35.20460471809183" height="35.20460471809183" as="geometry" />
        </mxCell>
        <mxCell id="fxWyjonsnhkvdFd7wCCT-9" value="&lt;span style=&quot;font-size: 18px&quot;&gt;部署&lt;/span&gt;" style="text;html=1;strokeColor=none;fillColor=none;align=center;verticalAlign=middle;whiteSpace=wrap;rounded=0;shadow=0;fontSize=12;" parent="yoitGKq9dfMv8cy0CzuJ-1" vertex="1">
          <mxGeometry x="442.45614035087715" y="153.08720930232556" width="127.63157894736841" height="35.058139534883715" as="geometry" />
        </mxCell>
        <mxCell id="fxWyjonsnhkvdFd7wCCT-10" value="" style="shape=image;html=1;verticalAlign=top;verticalLabelPosition=bottom;labelBackgroundColor=#ffffff;imageAspect=0;aspect=fixed;image=https://cdn2.iconfinder.com/data/icons/competitive-strategy-and-corporate-training/512/730_management_process_production_task_work_Business_Management-128.png;fillColor=none;fontSize=48;fontColor=#000000;" parent="yoitGKq9dfMv8cy0CzuJ-1" vertex="1">
          <mxGeometry x="395.65789473684214" y="211.90697674418604" width="35.20460471809183" height="35.20460471809183" as="geometry" />
        </mxCell>
        <mxCell id="fxWyjonsnhkvdFd7wCCT-11" value="&lt;span style=&quot;font-size: 18px&quot;&gt;生产运维&lt;/span&gt;" style="text;html=1;strokeColor=none;fillColor=none;align=center;verticalAlign=middle;whiteSpace=wrap;rounded=0;shadow=0;fontSize=12;" parent="yoitGKq9dfMv8cy0CzuJ-1" vertex="1">
          <mxGeometry x="442.45614035087715" y="211.90697674418604" width="127.63157894736841" height="35.058139534883715" as="geometry" />
        </mxCell>
        <mxCell id="fxWyjonsnhkvdFd7wCCT-19" value="" style="points=[[0.5,0,0],[1,0.5,0],[0.5,1,0],[0,0.5,0],[0.145,0.145,0],[0.8555,0.145,0],[0.855,0.8555,0],[0.145,0.855,0]];verticalLabelPosition=bottom;html=1;verticalAlign=top;aspect=fixed;align=center;pointerEvents=1;shape=mxgraph.cisco19.lock;strokeColor=none;fontSize=48;fontColor=#000000;fillColor=#000000;" parent="yoitGKq9dfMv8cy0CzuJ-1" vertex="1">
          <mxGeometry x="765.7894736842107" y="85.30813953488371" width="36.671463248012316" height="36.671463248012316" as="geometry" />
        </mxCell>
        <mxCell id="fxWyjonsnhkvdFd7wCCT-20" value="&lt;span style=&quot;font-size: 18px&quot;&gt;权限与安全&lt;/span&gt;" style="text;html=1;strokeColor=none;fillColor=none;align=center;verticalAlign=middle;whiteSpace=wrap;rounded=0;shadow=0;fontSize=12;" parent="yoitGKq9dfMv8cy0CzuJ-1" vertex="1">
          <mxGeometry x="816.8421052631578" y="87.25581395348837" width="127.63157894736841" height="35.058139534883715" as="geometry" />
        </mxCell>
        <mxCell id="fxWyjonsnhkvdFd7wCCT-21" value="" style="points=[[0,0,0],[0.25,0,0],[0.5,0,0],[0.75,0,0],[1,0,0],[0,1,0],[0.25,1,0],[0.5,1,0],[0.75,1,0],[1,1,0],[0,0.25,0],[0,0.5,0],[0,0.75,0],[1,0.25,0],[1,0.5,0],[1,0.75,0]];outlineConnect=0;fontColor=#232F3E;gradientColor=#F78E04;gradientDirection=north;dashed=0;verticalLabelPosition=bottom;verticalAlign=top;align=center;html=1;fontSize=12;fontStyle=0;aspect=fixed;shape=mxgraph.aws4.resourceIcon;resIcon=mxgraph.aws4.vmware_cloud_on_aws;fillColor=none;" parent="yoitGKq9dfMv8cy0CzuJ-1" vertex="1">
          <mxGeometry x="753.877192982456" y="145.68604651162786" width="57.20748266689922" height="57.20748266689922" as="geometry" />
        </mxCell>
        <mxCell id="fxWyjonsnhkvdFd7wCCT-22" value="&lt;span style=&quot;font-size: 18px&quot;&gt;计算资源扩展&lt;/span&gt;" style="text;html=1;strokeColor=none;fillColor=none;align=center;verticalAlign=middle;whiteSpace=wrap;rounded=0;shadow=0;fontSize=12;" parent="yoitGKq9dfMv8cy0CzuJ-1" vertex="1">
          <mxGeometry x="816.8421052631578" y="158.54069767441857" width="127.63157894736841" height="35.058139534883715" as="geometry" />
        </mxCell>
        <mxCell id="fxWyjonsnhkvdFd7wCCT-23" value="" style="pointerEvents=1;shadow=0;dashed=0;html=1;strokeColor=none;fillColor=#434445;aspect=fixed;labelPosition=center;verticalLabelPosition=bottom;verticalAlign=top;align=center;outlineConnect=0;shape=mxgraph.vvd.site_recovery_functional_icon;fontSize=48;fontColor=#000000;" parent="yoitGKq9dfMv8cy0CzuJ-1" vertex="1">
          <mxGeometry x="769.831140350877" y="218.1395348837209" width="29.70388523088998" height="36.671463248012316" as="geometry" />
        </mxCell>
        <mxCell id="fxWyjonsnhkvdFd7wCCT-24" value="&lt;span style=&quot;font-size: 18px&quot;&gt;容灾与备份&lt;/span&gt;" style="text;html=1;strokeColor=none;fillColor=none;align=center;verticalAlign=middle;whiteSpace=wrap;rounded=0;shadow=0;fontSize=12;" parent="yoitGKq9dfMv8cy0CzuJ-1" vertex="1">
          <mxGeometry x="816.8421052631578" y="218.1395348837209" width="127.63157894736841" height="35.058139534883715" as="geometry" />
        </mxCell>
        <mxCell id="fxWyjonsnhkvdFd7wCCT-25" value="" style="shape=mxgraph.signs.tech.computer;html=1;pointerEvents=1;fillColor=#000000;strokeColor=none;verticalLabelPosition=bottom;verticalAlign=top;align=center;fontSize=48;fontColor=#000000;" parent="yoitGKq9dfMv8cy0CzuJ-1" vertex="1">
          <mxGeometry x="34.03508771929826" y="94.65697674418605" width="42.54385964912281" height="29.6046511627907" as="geometry" />
        </mxCell>
        <mxCell id="fxWyjonsnhkvdFd7wCCT-27" value="&lt;span style=&quot;font-size: 18px&quot;&gt;交易终端&lt;/span&gt;" style="text;html=1;strokeColor=none;fillColor=none;align=center;verticalAlign=middle;whiteSpace=wrap;rounded=0;shadow=0;fontSize=12;" parent="yoitGKq9dfMv8cy0CzuJ-1" vertex="1">
          <mxGeometry x="76.57894736842104" y="89.20348837209302" width="127.63157894736841" height="35.058139534883715" as="geometry" />
        </mxCell>
        <mxCell id="fxWyjonsnhkvdFd7wCCT-28" value="" style="shape=image;html=1;verticalAlign=top;verticalLabelPosition=bottom;labelBackgroundColor=#ffffff;imageAspect=0;aspect=fixed;image=https://cdn2.iconfinder.com/data/icons/entrepreneur-solid-high-risk-high-return/512/Business_vision-128.png;strokeColor=#000000;fillColor=none;fontSize=48;fontColor=#000000;" parent="yoitGKq9dfMv8cy0CzuJ-1" vertex="1">
          <mxGeometry x="26.37719298245616" y="151.91860465116278" width="49.873190017296764" height="49.873190017296764" as="geometry" />
        </mxCell>
        <mxCell id="fxWyjonsnhkvdFd7wCCT-29" value="&lt;span style=&quot;font-size: 18px&quot;&gt;风险管理&lt;/span&gt;" style="text;html=1;strokeColor=none;fillColor=none;align=center;verticalAlign=middle;whiteSpace=wrap;rounded=0;shadow=0;fontSize=12;" parent="yoitGKq9dfMv8cy0CzuJ-1" vertex="1">
          <mxGeometry x="76.57894736842104" y="158.54069767441857" width="127.63157894736841" height="35.058139534883715" as="geometry" />
        </mxCell>
        <mxCell id="fxWyjonsnhkvdFd7wCCT-33" value="" style="outlineConnect=0;fontColor=#232F3E;gradientColor=none;strokeColor=none;dashed=0;verticalLabelPosition=bottom;verticalAlign=top;align=center;html=1;fontSize=12;fontStyle=0;aspect=fixed;pointerEvents=1;shape=mxgraph.aws4.cluster;fillColor=#000000;" parent="yoitGKq9dfMv8cy0CzuJ-1" vertex="1">
          <mxGeometry x="30.631578947368435" y="218.1395348837209" width="42.5388973676943" height="42.5388973676943" as="geometry" />
        </mxCell>
        <mxCell id="fxWyjonsnhkvdFd7wCCT-34" value="&lt;span style=&quot;font-size: 18px&quot;&gt;数据分析&lt;/span&gt;" style="text;html=1;strokeColor=none;fillColor=none;align=center;verticalAlign=middle;whiteSpace=wrap;rounded=0;shadow=0;fontSize=12;" parent="yoitGKq9dfMv8cy0CzuJ-1" vertex="1">
          <mxGeometry x="76.57894736842104" y="223.20348837209298" width="127.63157894736841" height="35.058139534883715" as="geometry" />
        </mxCell>
      </root>
    </mxGraphModel>
  </diagram>
  <diagram id="zYoErhl1gCxoGuJL3JhY" name="业务层级拆分">
    <mxGraphModel dx="1638" dy="793" grid="1" gridSize="10" guides="1" tooltips="1" connect="1" arrows="1" fold="1" page="1" pageScale="1" pageWidth="827" pageHeight="1169" math="0" shadow="0">
      <root>
        <mxCell id="EpM0Hx9t3ZsldlSce_xf-0" />
        <mxCell id="EpM0Hx9t3ZsldlSce_xf-1" parent="EpM0Hx9t3ZsldlSce_xf-0" />
        <mxCell id="ftro2MdfkU1cdXuBqUgK-0" value="" style="group" vertex="1" connectable="0" parent="EpM0Hx9t3ZsldlSce_xf-1">
          <mxGeometry x="180" y="570" width="601" height="60" as="geometry" />
        </mxCell>
        <mxCell id="ftro2MdfkU1cdXuBqUgK-1" value="依赖关系计算与分布式框架" style="rounded=1;whiteSpace=wrap;html=1;fontSize=18;fillColor=#dae8fc;strokeColor=#6c8ebf;" vertex="1" parent="ftro2MdfkU1cdXuBqUgK-0">
          <mxGeometry width="320" height="60" as="geometry" />
        </mxCell>
        <mxCell id="ftro2MdfkU1cdXuBqUgK-2" value="可回溯对象存储平台" style="rounded=1;whiteSpace=wrap;html=1;fontSize=18;fillColor=#dae8fc;strokeColor=#6c8ebf;" vertex="1" parent="ftro2MdfkU1cdXuBqUgK-0">
          <mxGeometry x="360" width="241" height="60" as="geometry" />
        </mxCell>
        <mxCell id="ftro2MdfkU1cdXuBqUgK-3" value="" style="group" vertex="1" connectable="0" parent="EpM0Hx9t3ZsldlSce_xf-1">
          <mxGeometry x="181" y="650" width="600" height="160" as="geometry" />
        </mxCell>
        <mxCell id="ftro2MdfkU1cdXuBqUgK-4" value="" style="rounded=1;whiteSpace=wrap;html=1;fillColor=#f5f5f5;strokeColor=#666666;fontColor=#333333;" vertex="1" parent="ftro2MdfkU1cdXuBqUgK-3">
          <mxGeometry width="320" height="160" as="geometry" />
        </mxCell>
        <mxCell id="ftro2MdfkU1cdXuBqUgK-5" value="" style="rounded=1;whiteSpace=wrap;html=1;fillColor=#f5f5f5;strokeColor=#666666;fontColor=#333333;" vertex="1" parent="ftro2MdfkU1cdXuBqUgK-3">
          <mxGeometry x="360" width="240" height="160" as="geometry" />
        </mxCell>
        <mxCell id="ftro2MdfkU1cdXuBqUgK-6" value="" style="html=1;dashed=0;whitespace=wrap;fillColor=#2875E2;strokeColor=#ffffff;points=[[0.005,0.63,0],[0.1,0.2,0],[0.9,0.2,0],[0.5,0,0],[0.995,0.63,0],[0.72,0.99,0],[0.5,1,0],[0.28,0.99,0]];shape=mxgraph.kubernetes.icon;prIcon=pv" vertex="1" parent="ftro2MdfkU1cdXuBqUgK-3">
          <mxGeometry x="399" y="69" width="50" height="48" as="geometry" />
        </mxCell>
        <mxCell id="ftro2MdfkU1cdXuBqUgK-7" value="" style="html=1;dashed=0;whitespace=wrap;fillColor=#2875E2;strokeColor=#ffffff;points=[[0.005,0.63,0],[0.1,0.2,0],[0.9,0.2,0],[0.5,0,0],[0.995,0.63,0],[0.72,0.99,0],[0.5,1,0],[0.28,0.99,0]];shape=mxgraph.kubernetes.icon;prIcon=pod" vertex="1" parent="ftro2MdfkU1cdXuBqUgK-3">
          <mxGeometry x="59" y="39" width="50" height="50" as="geometry" />
        </mxCell>
        <mxCell id="ftro2MdfkU1cdXuBqUgK-8" value="" style="html=1;dashed=0;whitespace=wrap;fillColor=#2875E2;strokeColor=#ffffff;points=[[0.005,0.63,0],[0.1,0.2,0],[0.9,0.2,0],[0.5,0,0],[0.995,0.63,0],[0.72,0.99,0],[0.5,1,0],[0.28,0.99,0]];shape=mxgraph.kubernetes.icon;prIcon=pod" vertex="1" parent="ftro2MdfkU1cdXuBqUgK-3">
          <mxGeometry x="139" y="39" width="50" height="50" as="geometry" />
        </mxCell>
        <mxCell id="ftro2MdfkU1cdXuBqUgK-9" value="" style="html=1;dashed=0;whitespace=wrap;fillColor=#2875E2;strokeColor=#ffffff;points=[[0.005,0.63,0],[0.1,0.2,0],[0.9,0.2,0],[0.5,0,0],[0.995,0.63,0],[0.72,0.99,0],[0.5,1,0],[0.28,0.99,0]];shape=mxgraph.kubernetes.icon;prIcon=pod" vertex="1" parent="ftro2MdfkU1cdXuBqUgK-3">
          <mxGeometry x="219" y="39" width="50" height="50" as="geometry" />
        </mxCell>
        <mxCell id="ftro2MdfkU1cdXuBqUgK-10" value="" style="html=1;dashed=0;whitespace=wrap;fillColor=#2875E2;strokeColor=#ffffff;points=[[0.005,0.63,0],[0.1,0.2,0],[0.9,0.2,0],[0.5,0,0],[0.995,0.63,0],[0.72,0.99,0],[0.5,1,0],[0.28,0.99,0]];shape=mxgraph.kubernetes.icon;prIcon=pod" vertex="1" parent="ftro2MdfkU1cdXuBqUgK-3">
          <mxGeometry x="59" y="99" width="50" height="50" as="geometry" />
        </mxCell>
        <mxCell id="ftro2MdfkU1cdXuBqUgK-11" value="" style="html=1;dashed=0;whitespace=wrap;fillColor=#2875E2;strokeColor=#ffffff;points=[[0.005,0.63,0],[0.1,0.2,0],[0.9,0.2,0],[0.5,0,0],[0.995,0.63,0],[0.72,0.99,0],[0.5,1,0],[0.28,0.99,0]];shape=mxgraph.kubernetes.icon;prIcon=pod" vertex="1" parent="ftro2MdfkU1cdXuBqUgK-3">
          <mxGeometry x="139" y="99" width="50" height="50" as="geometry" />
        </mxCell>
        <mxCell id="ftro2MdfkU1cdXuBqUgK-12" value="" style="html=1;dashed=0;whitespace=wrap;fillColor=#2875E2;strokeColor=#ffffff;points=[[0.005,0.63,0],[0.1,0.2,0],[0.9,0.2,0],[0.5,0,0],[0.995,0.63,0],[0.72,0.99,0],[0.5,1,0],[0.28,0.99,0]];shape=mxgraph.kubernetes.icon;prIcon=pod" vertex="1" parent="ftro2MdfkU1cdXuBqUgK-3">
          <mxGeometry x="219" y="99" width="50" height="50" as="geometry" />
        </mxCell>
        <mxCell id="ftro2MdfkU1cdXuBqUgK-13" value="" style="html=1;dashed=0;whitespace=wrap;fillColor=#2875E2;strokeColor=#ffffff;points=[[0.005,0.63,0],[0.1,0.2,0],[0.9,0.2,0],[0.5,0,0],[0.995,0.63,0],[0.72,0.99,0],[0.5,1,0],[0.28,0.99,0]];shape=mxgraph.kubernetes.icon;prIcon=pv" vertex="1" parent="ftro2MdfkU1cdXuBqUgK-3">
          <mxGeometry x="520" y="69" width="50" height="48" as="geometry" />
        </mxCell>
        <mxCell id="ftro2MdfkU1cdXuBqUgK-14" value="计算资源池" style="text;html=1;strokeColor=none;fillColor=none;align=center;verticalAlign=middle;whiteSpace=wrap;rounded=0;dashed=1;fontSize=18;" vertex="1" parent="ftro2MdfkU1cdXuBqUgK-3">
          <mxGeometry x="78.5" y="10" width="171" height="20" as="geometry" />
        </mxCell>
        <mxCell id="ftro2MdfkU1cdXuBqUgK-15" value="数据存储组件" style="text;html=1;strokeColor=none;fillColor=none;align=center;verticalAlign=middle;whiteSpace=wrap;rounded=0;dashed=1;fontSize=18;" vertex="1" parent="ftro2MdfkU1cdXuBqUgK-3">
          <mxGeometry x="415" y="10" width="130" height="20" as="geometry" />
        </mxCell>
        <mxCell id="ftro2MdfkU1cdXuBqUgK-16" value="" style="group" vertex="1" connectable="0" parent="EpM0Hx9t3ZsldlSce_xf-1">
          <mxGeometry x="189.5" y="420" width="1228.5" height="329" as="geometry" />
        </mxCell>
        <mxCell id="ftro2MdfkU1cdXuBqUgK-17" value="标准多资产定价模型库" style="rounded=1;whiteSpace=wrap;html=1;fontSize=18;fillColor=#d5e8d4;strokeColor=#82b366;" vertex="1" parent="ftro2MdfkU1cdXuBqUgK-16">
          <mxGeometry x="-9.5" y="90" width="601" height="40" as="geometry" />
        </mxCell>
        <mxCell id="ftro2MdfkU1cdXuBqUgK-18" value="通用数据定义" style="rounded=1;whiteSpace=wrap;html=1;fontSize=18;fillColor=#d5e8d4;strokeColor=#82b366;" vertex="1" parent="ftro2MdfkU1cdXuBqUgK-16">
          <mxGeometry x="-9.5" y="40" width="601" height="40" as="geometry" />
        </mxCell>
        <mxCell id="ftro2MdfkU1cdXuBqUgK-19" value="多资产定价过程" style="rounded=1;whiteSpace=wrap;html=1;fontSize=18;fillColor=#d5e8d4;strokeColor=#82b366;" vertex="1" parent="ftro2MdfkU1cdXuBqUgK-16">
          <mxGeometry x="-8.5" y="-10" width="600" height="40" as="geometry" />
        </mxCell>
        <mxCell id="ftro2MdfkU1cdXuBqUgK-20" value="" style="group" vertex="1" connectable="0" parent="EpM0Hx9t3ZsldlSce_xf-1">
          <mxGeometry x="190" y="340" width="582" height="50" as="geometry" />
        </mxCell>
        <mxCell id="ftro2MdfkU1cdXuBqUgK-21" value="产品设计" style="rounded=1;whiteSpace=wrap;html=1;fontSize=18;fillColor=#ffe6cc;strokeColor=#d79b00;" vertex="1" parent="ftro2MdfkU1cdXuBqUgK-20">
          <mxGeometry width="101" height="50" as="geometry" />
        </mxCell>
        <mxCell id="ftro2MdfkU1cdXuBqUgK-22" value="定价分析" style="rounded=1;whiteSpace=wrap;html=1;fontSize=18;fillColor=#ffe6cc;strokeColor=#d79b00;" vertex="1" parent="ftro2MdfkU1cdXuBqUgK-20">
          <mxGeometry x="121" width="101" height="50" as="geometry" />
        </mxCell>
        <mxCell id="ftro2MdfkU1cdXuBqUgK-23" value="情景分析" style="rounded=1;whiteSpace=wrap;html=1;fontSize=18;fillColor=#ffe6cc;strokeColor=#d79b00;" vertex="1" parent="ftro2MdfkU1cdXuBqUgK-20">
          <mxGeometry x="241" width="101" height="50" as="geometry" />
        </mxCell>
        <mxCell id="ftro2MdfkU1cdXuBqUgK-24" value="数据接口" style="rounded=1;whiteSpace=wrap;html=1;fontSize=18;fillColor=#ffe6cc;strokeColor=#d79b00;" vertex="1" parent="ftro2MdfkU1cdXuBqUgK-20">
          <mxGeometry x="361" width="101" height="50" as="geometry" />
        </mxCell>
        <mxCell id="ftro2MdfkU1cdXuBqUgK-25" value="定价算法" style="rounded=1;whiteSpace=wrap;html=1;fontSize=18;fillColor=#ffe6cc;strokeColor=#d79b00;" vertex="1" parent="ftro2MdfkU1cdXuBqUgK-20">
          <mxGeometry x="481" width="101" height="50" as="geometry" />
        </mxCell>
        <mxCell id="ftro2MdfkU1cdXuBqUgK-31" value="基础设施层" style="text;html=1;strokeColor=none;fillColor=none;align=center;verticalAlign=middle;whiteSpace=wrap;rounded=0;dashed=1;fontSize=20;" vertex="1" parent="EpM0Hx9t3ZsldlSce_xf-1">
          <mxGeometry x="29.5" y="733" width="130" height="20" as="geometry" />
        </mxCell>
        <mxCell id="ftro2MdfkU1cdXuBqUgK-32" value="核心技术层" style="text;html=1;strokeColor=none;fillColor=none;align=center;verticalAlign=middle;whiteSpace=wrap;rounded=0;dashed=1;fontSize=20;" vertex="1" parent="EpM0Hx9t3ZsldlSce_xf-1">
          <mxGeometry x="10" y="600" width="169" height="20" as="geometry" />
        </mxCell>
        <mxCell id="ftro2MdfkU1cdXuBqUgK-33" value="业务抽象层" style="text;html=1;strokeColor=none;fillColor=none;align=center;verticalAlign=middle;whiteSpace=wrap;rounded=0;dashed=1;fontSize=20;" vertex="1" parent="EpM0Hx9t3ZsldlSce_xf-1">
          <mxGeometry x="29.5" y="480" width="130" height="20" as="geometry" />
        </mxCell>
        <mxCell id="ftro2MdfkU1cdXuBqUgK-34" value="API接口层" style="text;html=1;strokeColor=none;fillColor=none;align=center;verticalAlign=middle;whiteSpace=wrap;rounded=0;dashed=1;fontSize=20;" vertex="1" parent="EpM0Hx9t3ZsldlSce_xf-1">
          <mxGeometry x="29.5" y="365" width="130" height="20" as="geometry" />
        </mxCell>
        <mxCell id="ftro2MdfkU1cdXuBqUgK-35" value="应用层" style="text;html=1;strokeColor=none;fillColor=none;align=center;verticalAlign=middle;whiteSpace=wrap;rounded=0;dashed=1;fontSize=20;" vertex="1" parent="EpM0Hx9t3ZsldlSce_xf-1">
          <mxGeometry x="29.5" y="204.78" width="130" height="20" as="geometry" />
        </mxCell>
        <mxCell id="6mVS0iCxpT_N_FNbbl8f-10" value="" style="whiteSpace=wrap;html=1;rounded=1;shadow=0;strokeWidth=4;fontSize=20;align=center;strokeColor=#b85450;fillColor=#f8cecc;" vertex="1" parent="EpM0Hx9t3ZsldlSce_xf-1">
          <mxGeometry x="599.9971929824561" y="80" width="189.12280701754378" height="214.99999999999994" as="geometry" />
        </mxCell>
        <mxCell id="6mVS0iCxpT_N_FNbbl8f-11" value="&lt;font style=&quot;font-size: 18px;&quot;&gt;计算资源与基础设施&lt;/font&gt;" style="text;html=1;strokeColor=none;fillColor=none;align=center;verticalAlign=middle;whiteSpace=wrap;rounded=0;shadow=0;fontSize=18;fontStyle=1" vertex="1" parent="EpM0Hx9t3ZsldlSce_xf-1">
          <mxGeometry x="599.9971929824561" y="90" width="189.12280701754378" height="29.999999999999996" as="geometry" />
        </mxCell>
        <mxCell id="6mVS0iCxpT_N_FNbbl8f-12" value="" style="line;strokeWidth=2;html=1;rounded=0;shadow=0;fontSize=27;align=center;fillColor=none;strokeColor=#FFFFFF;" vertex="1" parent="EpM0Hx9t3ZsldlSce_xf-1">
          <mxGeometry x="613.5059649122808" y="120" width="162.1052631578947" height="5" as="geometry" />
        </mxCell>
        <mxCell id="6mVS0iCxpT_N_FNbbl8f-13" value="" style="line;strokeWidth=2;html=1;rounded=0;shadow=0;fontSize=27;align=center;fillColor=none;strokeColor=#FFFFFF;" vertex="1" parent="EpM0Hx9t3ZsldlSce_xf-1">
          <mxGeometry x="613.5059649122808" y="252.5" width="162.1052631578947" height="5" as="geometry" />
        </mxCell>
        <mxCell id="6mVS0iCxpT_N_FNbbl8f-17" value="&lt;font style=&quot;font-size: 14px;&quot;&gt;可靠、高效、低成本&lt;/font&gt;" style="text;html=1;strokeColor=none;fillColor=none;align=center;verticalAlign=middle;whiteSpace=wrap;rounded=0;shadow=0;fontSize=14;" vertex="1" parent="EpM0Hx9t3ZsldlSce_xf-1">
          <mxGeometry x="599.9971929824561" y="262.49999999999994" width="189.12280701754378" height="22.499999999999996" as="geometry" />
        </mxCell>
        <mxCell id="6mVS0iCxpT_N_FNbbl8f-24" value="" style="points=[[0.5,0,0],[1,0.5,0],[0.5,1,0],[0,0.5,0],[0.145,0.145,0],[0.8555,0.145,0],[0.855,0.8555,0],[0.145,0.855,0]];verticalLabelPosition=bottom;html=1;verticalAlign=top;aspect=fixed;align=center;pointerEvents=1;shape=mxgraph.cisco19.lock;strokeColor=none;fontSize=48;fontColor=#000000;fillColor=#000000;" vertex="1" parent="EpM0Hx9t3ZsldlSce_xf-1">
          <mxGeometry x="627.0147368421054" y="134.75" width="23.53541671141089" height="23.53541671141089" as="geometry" />
        </mxCell>
        <mxCell id="6mVS0iCxpT_N_FNbbl8f-25" value="&lt;span style=&quot;font-size: 14px;&quot;&gt;权限与安全&lt;/span&gt;" style="text;html=1;strokeColor=none;fillColor=none;align=center;verticalAlign=middle;whiteSpace=wrap;rounded=0;shadow=0;fontSize=14;" vertex="1" parent="EpM0Hx9t3ZsldlSce_xf-1">
          <mxGeometry x="667.5410526315789" y="136" width="101.31578947368419" height="22.499999999999996" as="geometry" />
        </mxCell>
        <mxCell id="6mVS0iCxpT_N_FNbbl8f-26" value="" style="points=[[0,0,0],[0.25,0,0],[0.5,0,0],[0.75,0,0],[1,0,0],[0,1,0],[0.25,1,0],[0.5,1,0],[0.75,1,0],[1,1,0],[0,0.25,0],[0,0.5,0],[0,0.75,0],[1,0.25,0],[1,0.5,0],[1,0.75,0]];outlineConnect=0;fontColor=#232F3E;gradientColor=#F78E04;gradientDirection=north;dashed=0;verticalLabelPosition=bottom;verticalAlign=top;align=center;html=1;fontSize=12;fontStyle=0;aspect=fixed;shape=mxgraph.aws4.resourceIcon;resIcon=mxgraph.aws4.vmware_cloud_on_aws;fillColor=none;" vertex="1" parent="EpM0Hx9t3ZsldlSce_xf-1">
          <mxGeometry x="617.5585964912278" y="173.5" width="36.71525006980099" height="36.71525006980099" as="geometry" />
        </mxCell>
        <mxCell id="6mVS0iCxpT_N_FNbbl8f-27" value="&lt;span style=&quot;font-size: 14px;&quot;&gt;计算资源扩展&lt;/span&gt;" style="text;html=1;strokeColor=none;fillColor=none;align=center;verticalAlign=middle;whiteSpace=wrap;rounded=0;shadow=0;fontSize=14;" vertex="1" parent="EpM0Hx9t3ZsldlSce_xf-1">
          <mxGeometry x="667.5410526315789" y="181.75" width="101.31578947368419" height="22.499999999999996" as="geometry" />
        </mxCell>
        <mxCell id="6mVS0iCxpT_N_FNbbl8f-28" value="" style="pointerEvents=1;shadow=0;dashed=0;html=1;strokeColor=none;fillColor=#434445;aspect=fixed;labelPosition=center;verticalLabelPosition=bottom;verticalAlign=top;align=center;outlineConnect=0;shape=mxgraph.vvd.site_recovery_functional_icon;fontSize=48;fontColor=#000000;" vertex="1" parent="EpM0Hx9t3ZsldlSce_xf-1">
          <mxGeometry x="630.2230701754384" y="220" width="19.063687536242824" height="23.53541671141089" as="geometry" />
        </mxCell>
        <mxCell id="6mVS0iCxpT_N_FNbbl8f-29" value="&lt;span style=&quot;font-size: 14px;&quot;&gt;容灾与备份&lt;/span&gt;" style="text;html=1;strokeColor=none;fillColor=none;align=center;verticalAlign=middle;whiteSpace=wrap;rounded=0;shadow=0;fontSize=14;" vertex="1" parent="EpM0Hx9t3ZsldlSce_xf-1">
          <mxGeometry x="667.5410526315789" y="220" width="101.31578947368419" height="22.499999999999996" as="geometry" />
        </mxCell>
        <mxCell id="6mVS0iCxpT_N_FNbbl8f-6" value="" style="whiteSpace=wrap;html=1;rounded=1;shadow=0;strokeWidth=3;fontSize=20;align=center;strokeColor=#b85450;fillColor=#f8cecc;" vertex="1" parent="EpM0Hx9t3ZsldlSce_xf-1">
          <mxGeometry x="390.4122807017543" y="80" width="189.12280701754378" height="214.99999999999994" as="geometry" />
        </mxCell>
        <mxCell id="6mVS0iCxpT_N_FNbbl8f-7" value="&lt;font style=&quot;font-size: 18px;&quot;&gt;开发与持续集成平台&lt;/font&gt;" style="text;html=1;strokeColor=none;fillColor=none;align=center;verticalAlign=middle;whiteSpace=wrap;rounded=0;shadow=0;fontSize=18;fontStyle=1" vertex="1" parent="EpM0Hx9t3ZsldlSce_xf-1">
          <mxGeometry x="390.4122807017543" y="90" width="189.12280701754378" height="29.999999999999996" as="geometry" />
        </mxCell>
        <mxCell id="6mVS0iCxpT_N_FNbbl8f-8" value="" style="line;strokeWidth=2;html=1;rounded=0;shadow=0;fontSize=27;align=center;fillColor=none;strokeColor=#FFFFFF;" vertex="1" parent="EpM0Hx9t3ZsldlSce_xf-1">
          <mxGeometry x="403.9210526315788" y="120" width="162.1052631578947" height="5" as="geometry" />
        </mxCell>
        <mxCell id="6mVS0iCxpT_N_FNbbl8f-9" value="" style="line;strokeWidth=2;html=1;rounded=0;shadow=0;fontSize=27;align=center;fillColor=none;strokeColor=#FFFFFF;" vertex="1" parent="EpM0Hx9t3ZsldlSce_xf-1">
          <mxGeometry x="403.9210526315788" y="252.5" width="162.1052631578947" height="5" as="geometry" />
        </mxCell>
        <mxCell id="6mVS0iCxpT_N_FNbbl8f-16" value="&lt;font style=&quot;font-size: 14px;&quot;&gt;创新&amp;nbsp; +&amp;nbsp; 协作&lt;/font&gt;" style="text;html=1;strokeColor=none;fillColor=none;align=center;verticalAlign=middle;whiteSpace=wrap;rounded=0;shadow=0;fontSize=14;" vertex="1" parent="EpM0Hx9t3ZsldlSce_xf-1">
          <mxGeometry x="390.4122807017543" y="262.49999999999994" width="189.12280701754378" height="22.499999999999996" as="geometry" />
        </mxCell>
        <mxCell id="6mVS0iCxpT_N_FNbbl8f-18" value="" style="shape=image;html=1;verticalAlign=top;verticalLabelPosition=bottom;labelBackgroundColor=#ffffff;imageAspect=0;aspect=fixed;image=https://cdn1.iconfinder.com/data/icons/essentials-pack/96/code_coding_html_css_programming-128.png;fillColor=none;fontSize=48;fontColor=#000000;" vertex="1" parent="EpM0Hx9t3ZsldlSce_xf-1">
          <mxGeometry x="419.45614035087704" y="142.5" width="17.886916700672273" height="17.886916700672273" as="geometry" />
        </mxCell>
        <mxCell id="6mVS0iCxpT_N_FNbbl8f-19" value="&lt;span style=&quot;font-size: 14px;&quot;&gt;构建与测试&lt;/span&gt;" style="text;html=1;strokeColor=none;fillColor=none;align=center;verticalAlign=middle;whiteSpace=wrap;rounded=0;shadow=0;fontSize=14;" vertex="1" parent="EpM0Hx9t3ZsldlSce_xf-1">
          <mxGeometry x="453.22807017543846" y="139" width="101.31578947368419" height="22.499999999999996" as="geometry" />
        </mxCell>
        <mxCell id="6mVS0iCxpT_N_FNbbl8f-20" value="" style="shape=image;html=1;verticalAlign=top;verticalLabelPosition=bottom;labelBackgroundColor=#ffffff;imageAspect=0;aspect=fixed;image=https://cdn1.iconfinder.com/data/icons/logos-and-brands-3/512/97_Docker_logo_logos-128.png;fillColor=none;fontSize=48;fontColor=#000000;" vertex="1" parent="EpM0Hx9t3ZsldlSce_xf-1">
          <mxGeometry x="416.07894736842104" y="177.5" width="22.59400004295446" height="22.59400004295446" as="geometry" />
        </mxCell>
        <mxCell id="6mVS0iCxpT_N_FNbbl8f-21" value="&lt;span style=&quot;font-size: 14px;&quot;&gt;部署&lt;/span&gt;" style="text;html=1;strokeColor=none;fillColor=none;align=center;verticalAlign=middle;whiteSpace=wrap;rounded=0;shadow=0;fontSize=14;" vertex="1" parent="EpM0Hx9t3ZsldlSce_xf-1">
          <mxGeometry x="453.22807017543846" y="178.25" width="101.31578947368419" height="22.499999999999996" as="geometry" />
        </mxCell>
        <mxCell id="6mVS0iCxpT_N_FNbbl8f-22" value="" style="shape=image;html=1;verticalAlign=top;verticalLabelPosition=bottom;labelBackgroundColor=#ffffff;imageAspect=0;aspect=fixed;image=https://cdn2.iconfinder.com/data/icons/competitive-strategy-and-corporate-training/512/730_management_process_production_task_work_Business_Management-128.png;fillColor=none;fontSize=48;fontColor=#000000;" vertex="1" parent="EpM0Hx9t3ZsldlSce_xf-1">
          <mxGeometry x="416.07894736842104" y="216" width="22.59400004295446" height="22.59400004295446" as="geometry" />
        </mxCell>
        <mxCell id="6mVS0iCxpT_N_FNbbl8f-23" value="&lt;span style=&quot;font-size: 14px;&quot;&gt;生产运维&lt;/span&gt;" style="text;html=1;strokeColor=none;fillColor=none;align=center;verticalAlign=middle;whiteSpace=wrap;rounded=0;shadow=0;fontSize=14;" vertex="1" parent="EpM0Hx9t3ZsldlSce_xf-1">
          <mxGeometry x="453.22807017543846" y="216" width="101.31578947368419" height="22.499999999999996" as="geometry" />
        </mxCell>
        <mxCell id="6mVS0iCxpT_N_FNbbl8f-1" value="" style="whiteSpace=wrap;html=1;rounded=1;shadow=0;strokeWidth=4;fontSize=20;align=center;strokeColor=#b85450;rotation=-180;fillColor=#f8cecc;" vertex="1" parent="EpM0Hx9t3ZsldlSce_xf-1">
          <mxGeometry x="180" y="80" width="189.12280701754378" height="214.99999999999994" as="geometry" />
        </mxCell>
        <mxCell id="6mVS0iCxpT_N_FNbbl8f-2" value="&lt;font style=&quot;font-size: 18px;&quot;&gt;交易与风险管理&lt;/font&gt;" style="text;html=1;strokeColor=none;fillColor=none;align=center;verticalAlign=middle;whiteSpace=wrap;rounded=0;shadow=0;fontSize=18;fontStyle=1" vertex="1" parent="EpM0Hx9t3ZsldlSce_xf-1">
          <mxGeometry x="180" y="90" width="189.12280701754378" height="29.999999999999996" as="geometry" />
        </mxCell>
        <mxCell id="6mVS0iCxpT_N_FNbbl8f-3" value="&lt;font style=&quot;font-size: 14px;&quot;&gt;强大的交易与定价工具集&lt;/font&gt;" style="text;html=1;strokeColor=none;fillColor=none;align=center;verticalAlign=middle;whiteSpace=wrap;rounded=0;shadow=0;fontSize=14;" vertex="1" parent="EpM0Hx9t3ZsldlSce_xf-1">
          <mxGeometry x="180" y="262.49999999999994" width="189.12280701754378" height="22.499999999999996" as="geometry" />
        </mxCell>
        <mxCell id="6mVS0iCxpT_N_FNbbl8f-4" value="" style="line;strokeWidth=2;html=1;rounded=0;shadow=0;fontSize=27;align=center;fillColor=none;strokeColor=#FFFFFF;" vertex="1" parent="EpM0Hx9t3ZsldlSce_xf-1">
          <mxGeometry x="193.50877192982455" y="120" width="162.1052631578947" height="5" as="geometry" />
        </mxCell>
        <mxCell id="6mVS0iCxpT_N_FNbbl8f-5" value="" style="line;strokeWidth=2;html=1;rounded=0;shadow=0;fontSize=27;align=center;fillColor=none;strokeColor=#FFFFFF;" vertex="1" parent="EpM0Hx9t3ZsldlSce_xf-1">
          <mxGeometry x="193.50877192982455" y="252.5" width="162.1052631578947" height="5" as="geometry" />
        </mxCell>
        <mxCell id="6mVS0iCxpT_N_FNbbl8f-30" value="" style="shape=mxgraph.signs.tech.computer;html=1;pointerEvents=1;fillColor=#000000;strokeColor=none;verticalLabelPosition=bottom;verticalAlign=top;align=center;fontSize=48;fontColor=#000000;" vertex="1" parent="EpM0Hx9t3ZsldlSce_xf-1">
          <mxGeometry x="207.0175438596491" y="140.75" width="33.7719298245614" height="19" as="geometry" />
        </mxCell>
        <mxCell id="6mVS0iCxpT_N_FNbbl8f-31" value="&lt;span style=&quot;font-size: 14px;&quot;&gt;交易终端&lt;/span&gt;" style="text;html=1;strokeColor=none;fillColor=none;align=center;verticalAlign=middle;whiteSpace=wrap;rounded=0;shadow=0;fontSize=14;" vertex="1" parent="EpM0Hx9t3ZsldlSce_xf-1">
          <mxGeometry x="240.7894736842105" y="137.25" width="101.31578947368419" height="22.499999999999996" as="geometry" />
        </mxCell>
        <mxCell id="6mVS0iCxpT_N_FNbbl8f-32" value="" style="shape=image;html=1;verticalAlign=top;verticalLabelPosition=bottom;labelBackgroundColor=#ffffff;imageAspect=0;aspect=fixed;image=https://cdn2.iconfinder.com/data/icons/entrepreneur-solid-high-risk-high-return/512/Business_vision-128.png;strokeColor=#000000;fillColor=none;fontSize=48;fontColor=#000000;" vertex="1" parent="EpM0Hx9t3ZsldlSce_xf-1">
          <mxGeometry x="200.93859649122805" y="177.5" width="32.00816672751881" height="32.00816672751881" as="geometry" />
        </mxCell>
        <mxCell id="6mVS0iCxpT_N_FNbbl8f-33" value="&lt;span style=&quot;font-size: 14px&quot;&gt;风险计算&lt;/span&gt;" style="text;html=1;strokeColor=none;fillColor=none;align=center;verticalAlign=middle;whiteSpace=wrap;rounded=0;shadow=0;fontSize=14;" vertex="1" parent="EpM0Hx9t3ZsldlSce_xf-1">
          <mxGeometry x="240.7894736842105" y="181.75" width="101.31578947368419" height="22.499999999999996" as="geometry" />
        </mxCell>
        <mxCell id="6mVS0iCxpT_N_FNbbl8f-34" value="" style="outlineConnect=0;fontColor=#232F3E;gradientColor=none;strokeColor=none;dashed=0;verticalLabelPosition=bottom;verticalAlign=top;align=center;html=1;fontSize=12;fontStyle=0;aspect=fixed;pointerEvents=1;shape=mxgraph.aws4.cluster;fillColor=#000000;" vertex="1" parent="EpM0Hx9t3ZsldlSce_xf-1">
          <mxGeometry x="204.3157894736842" y="220" width="27.30108338523664" height="27.30108338523664" as="geometry" />
        </mxCell>
        <mxCell id="6mVS0iCxpT_N_FNbbl8f-35" value="&lt;span style=&quot;font-size: 14px;&quot;&gt;数据分析&lt;/span&gt;" style="text;html=1;strokeColor=none;fillColor=none;align=center;verticalAlign=middle;whiteSpace=wrap;rounded=0;shadow=0;fontSize=14;" vertex="1" parent="EpM0Hx9t3ZsldlSce_xf-1">
          <mxGeometry x="240.7894736842105" y="223.25" width="101.31578947368419" height="22.499999999999996" as="geometry" />
        </mxCell>
      </root>
    </mxGraphModel>
  </diagram>
</mxfile>
